<svg width="45" height="44" viewBox="0 0 45 44" fill="none" xmlns="http://www.w3.org/2000/svg">
<path d="M32.7493 1.27832H12.3617C6.73188 1.27832 2.16797 5.84223 2.16797 11.4721V31.8596C2.16797 37.4895 6.73188 42.0534 12.3617 42.0534H32.7493C38.3791 42.0534 42.9431 37.4895 42.9431 31.8596V11.4721C42.9431 5.84223 38.3791 1.27832 32.7493 1.27832Z" stroke="black" stroke-width="2.4" stroke-linecap="round" stroke-linejoin="round"/>
<path d="M30.7101 20.3817C30.9617 22.0784 30.6719 23.8113 29.8819 25.3338C29.0919 26.8564 27.8419 28.091 26.3097 28.8622C24.7776 29.6334 23.0412 29.9018 21.3477 29.6293C19.6542 29.3568 18.0897 28.5572 16.8768 27.3443C15.6639 26.1314 14.8644 24.567 14.5919 22.8735C14.3194 21.18 14.5878 19.4436 15.359 17.9115C16.1301 16.3793 17.3648 15.1293 18.8873 14.3393C20.4099 13.5493 22.1428 13.2595 23.8395 13.5111C25.5703 13.7677 27.1726 14.5742 28.4098 15.8114C29.647 17.0486 30.4535 18.6509 30.7101 20.3817Z" stroke="black" stroke-width="2.4" stroke-linecap="round" stroke-linejoin="round"/>
<path d="M33.7695 10.4531H33.789" stroke="black" stroke-width="2.4" stroke-linecap="round" stroke-linejoin="round"/>
</svg>
