<svg width="44" height="42" viewBox="0 0 44 42" fill="none" xmlns="http://www.w3.org/2000/svg">
<path d="M29.9122 14.1338C33.1565 14.1338 36.2679 15.4226 38.5619 17.7166C40.856 20.0107 42.1447 23.122 42.1447 26.3663V40.6376H33.9897V26.3663C33.9897 25.2849 33.5601 24.2478 32.7954 23.4831C32.0308 22.7184 30.9936 22.2888 29.9122 22.2888C28.8308 22.2888 27.7937 22.7184 27.029 23.4831C26.2643 24.2478 25.8347 25.2849 25.8347 26.3663V40.6376H17.6797V26.3663C17.6797 23.122 18.9685 20.0107 21.2625 17.7166C23.5566 15.4226 26.6679 14.1338 29.9122 14.1338V14.1338Z" stroke="black" stroke-width="2.3" stroke-linecap="round" stroke-linejoin="round"/>
<path d="M9.52611 16.1729H1.37109V40.6379H9.52611V16.1729Z" stroke="black" stroke-width="2.3" stroke-linecap="round" stroke-linejoin="round"/>
<path d="M5.4486 10.0564C7.70055 10.0564 9.52611 8.23082 9.52611 5.97888C9.52611 3.72693 7.70055 1.90137 5.4486 1.90137C3.19666 1.90137 1.37109 3.72693 1.37109 5.97888C1.37109 8.23082 3.19666 10.0564 5.4486 10.0564Z" stroke="black" stroke-width="2.3" stroke-linecap="round" stroke-linejoin="round"/>
</svg>
