<svg width="260" height="443" viewBox="0 0 260 443" fill="none" xmlns="http://www.w3.org/2000/svg">
<path d="M240.118 427.132C241.875 427.132 243.2 427.588 244.02 429.229C244.645 430.48 245.243 431.489 245.243 432.899C245.243 434.717 244.658 435.854 243.205 436.86C242.18 437.569 241.116 437.846 239.949 437.333C238.101 436.519 237.817 434.299 237.503 432.504C237.328 431.506 237.285 430.107 237.503 429.113C237.605 428.644 237.96 427.502 238.545 427.372C238.796 427.316 238.997 427.077 239.244 427.022C239.506 426.964 239.797 427.068 240.059 427.009C242.321 426.507 243.717 428.739 244.719 430.504C245.762 432.34 245.572 433.35 244.545 435.08C243.941 436.097 242.997 436.81 242.072 437.527C240.446 438.787 238.792 439.944 236.739 440.413C234.899 440.834 232.849 440.646 230.979 440.646C227.724 440.646 224.577 440.111 221.478 439.106C219.657 438.516 217.948 437.642 216.235 436.802C214.378 435.891 212.446 435.123 210.527 434.355C207.42 433.113 204.493 431.412 201.375 430.213C200.538 429.891 199.655 429.618 198.754 429.585C198.338 429.571 197.441 429.392 197.13 429.773C196.147 430.974 195.672 433.039 195.473 434.537C195.359 435.388 195.394 436.229 195.382 437.087C195.374 437.631 195.327 438.309 195.091 438.808C194.944 439.118 194.407 439.015 194.139 439.015C191.575 439.015 188.712 439.276 186.321 438.2C184.905 437.563 185.247 436.237 185.247 434.938" stroke="#F9F9F9" stroke-width="3" stroke-linecap="round"/>
<path d="M185.248 434.937C185.248 432.274 185.015 429.656 185.015 426.989C185.015 424.64 185.151 422.243 184.892 419.909C184.78 418.909 184.538 418.029 184.73 416.99C185.044 415.283 185.69 413.571 186.238 411.929C186.6 410.842 186.667 409.62 186.231 408.55C186.07 408.155 185.835 407.71 185.597 407.353C185.542 407.27 185.234 406.978 185.364 406.978" stroke="#F9F9F9" stroke-width="3" stroke-linecap="round"/>
<path d="M186.178 408.492C186.178 406.391 186.178 404.29 186.178 402.188C186.178 400.497 186.104 398.796 186.437 397.127C186.674 395.942 187.232 394.701 187.693 393.581C188.24 392.249 189.134 390.987 190.146 389.976C191.634 388.487 193.803 388.108 195.835 387.827C198.353 387.478 200.993 387.599 203.511 387.872C204.787 388.01 206.294 388.167 207.329 389.011C207.699 389.313 207.529 390.001 207.465 390.383C207.182 392.082 206.537 393.77 205.75 395.296C203.238 400.169 197.135 402.443 191.861 402.188C186.207 401.916 188.557 394.797 189.829 391.522C190.436 389.958 191.393 388.604 192.942 387.859C194.378 387.169 196.091 386.842 197.66 386.616C199.558 386.344 202.188 386.15 204.016 386.791C204.804 387.068 205.464 387.679 206.113 388.183C206.877 388.777 207.625 389.344 208.067 390.228C209.368 392.83 209.597 396.253 209.802 399.095C209.898 400.437 209.823 401.868 210.086 403.185C210.479 405.149 211.335 407.055 212.183 408.855C213.02 410.629 213.783 412.369 214.85 414.02C215.846 415.56 217.125 416.838 218.526 418.006C220.093 419.312 222.278 419.803 224.17 420.44C226.397 421.189 228.383 422.598 230.655 423.223C233.166 423.913 235.51 425.184 238.046 425.76C239.171 426.016 240.128 426.783 241.282 426.783" stroke="#F9F9F9" stroke-width="3" stroke-linecap="round"/>
<path d="M187.815 395.557C187.815 393.512 187.815 391.467 187.815 389.422C187.815 386.778 186.831 384.333 186.277 381.785C184.984 375.836 182.711 370.191 181.376 364.256C180.877 362.038 180.269 360.006 179.927 357.745C179.605 355.623 179.766 353.413 179.766 351.27C179.766 345.502 180.928 340.348 182.02 334.707C183.039 329.441 183.821 324.188 185.561 319.093C186.548 316.202 187.683 313.473 188.781 310.632C190.009 307.453 190.726 305.153 193.932 303.728C196.879 302.418 200.787 302.512 203.984 302.512C208.802 302.512 215.729 303.537 215.825 309.666C215.851 311.295 216.082 313.132 215.163 314.567C214.341 315.852 213.017 316.588 211.962 317.644C209.199 320.406 205.11 321.15 201.337 321.185C196.034 321.235 190.563 320.231 187.207 315.569C185.135 312.692 185.491 309.339 188.459 307.234C192.001 304.721 197.256 303.8 201.516 303.8C204.695 303.8 209.498 302.857 212.284 304.837C214.273 306.25 216.078 307.245 217.256 309.434C217.967 310.754 218.603 313.42 217.685 314.746C215.324 318.157 212.03 321.677 210.692 325.693C210.364 326.676 209.85 327.501 209.636 328.519C209.378 329.754 209.533 330.974 209.315 332.203C208.349 337.632 208.722 343.147 208.027 348.623C207.275 354.541 207.132 360.879 207.132 366.832C207.132 374.904 207.132 382.977 207.132 391.05" stroke="#F9F9F9" stroke-width="3" stroke-linecap="round"/>
<path d="M187.201 313.366C187.201 300.406 188.058 287.39 189.014 274.481C189.319 270.367 189.336 266.288 189.336 262.146C189.336 258.372 189.31 254.37 188.285 250.71C187.603 248.273 186.853 246.066 184.693 244.508C182.906 243.219 181.089 242.303 179.594 240.611C177.265 237.976 176.152 234.994 175.07 231.699C173.554 227.083 172.998 221.981 172.867 217.128C172.824 215.517 173.415 215.163 175.002 215.163" stroke="#F9F9F9" stroke-width="3" stroke-linecap="round"/>
<path d="M172.868 216.078C172.868 213.491 172.483 210.576 172.936 208.03C173.704 203.712 180.955 203.403 184.203 203.116C195.73 202.099 206.906 202.218 218.293 204.353C221.725 204.996 225.347 206.404 228.375 208.148C231.09 209.712 232.327 210.908 232.576 214.214C233.012 220.001 233.97 227.105 231.899 232.648C229.543 238.951 223.089 243.028 217.023 245.152C210.66 247.38 202.25 248.39 195.606 246.931C188.373 245.343 180.868 240.111 176.901 233.885C173.292 228.221 170.925 220.396 172.546 213.672C173.959 207.811 179.281 202.152 184.678 199.677C197.283 193.894 209.034 201.906 218.988 209.199C224.365 213.138 227.544 218.101 229.289 224.549C232.38 235.966 230.148 247.625 227.002 258.758C224.244 268.518 221.137 278.171 219.903 288.29C219.289 293.324 218.31 298.832 218.31 303.759C218.31 306.016 218.92 308.024 218.92 310.316" stroke="#F9F9F9" stroke-width="3" stroke-linecap="round"/>
<path d="M171.953 216.688C171.953 213.398 172.867 210.317 172.867 207.064C172.867 202.25 174.242 197.354 174.935 192.595C175.831 186.433 175.612 180.189 175.612 173.974C175.612 170.804 175.699 167.847 174.697 164.842" stroke="#F9F9F9" stroke-width="3" stroke-linecap="round"/>
<path d="M174.697 164.841C174.697 157.989 175.549 150.5 174.223 143.747C173.418 139.65 172.494 135.449 172.274 131.277C172.025 126.533 171.611 120.547 169.513 116.35" stroke="#F9F9F9" stroke-width="3" stroke-linecap="round"/>
<path d="M168.901 116.045C168.901 109.45 167.546 103.075 166.394 96.5945C166.048 94.6479 165.822 92.0219 166.224 90.0544C166.735 87.5569 168.628 85.4926 169.969 83.4296C171.249 81.4607 173.784 79.75 175.475 78.0586C177.729 75.8047 178.902 73.6698 179.288 70.5866C179.463 69.1869 179.881 67.8871 179.881 66.4864C179.881 65.5789 181.101 64.8917 181.101 63.894" stroke="#F9F9F9" stroke-width="3" stroke-linecap="round"/>
<path d="M181.101 63.8939C181.101 61.5291 180.122 61.0855 178.491 59.4547C176.982 57.9456 175.051 56.1791 174.256 54.1345C173.638 52.5472 174.179 50.6609 173.476 49.2549" stroke="#F9F9F9" stroke-width="3" stroke-linecap="round"/>
<path d="M173.477 50.4744C173.418 46.9111 173.172 43.3727 173.172 39.8001C173.172 36.6687 173.631 35.4471 175.917 33.3956C177.653 31.8373 180.741 31.8707 182.931 31.8707C185.862 31.8707 187.745 33.0222 190.098 34.768C192.11 36.261 194.113 37.3575 195.571 39.4782C196.772 41.2256 197.931 43.156 199.247 44.8153C201.208 47.2875 202.409 50.2179 203.907 52.9142C204.615 54.1893 205.341 56.0612 205.5 57.4889C205.708 59.366 207.024 60.6541 207.024 62.7074C207.024 65.5692 207.035 68.1448 205.974 70.8741C205.219 72.8159 204.875 77.3025 206.719 78.5324" stroke="#F9F9F9" stroke-width="3" stroke-linecap="round"/>
<path d="M206.719 78.8374C209.033 84.5243 211.92 90.0859 214.58 95.6112C215.642 97.8168 216.86 99.9424 218.071 102.084C219.9 105.32 221.426 108.98 224.035 111.707C225.948 113.708 228.175 116.3 229.287 118.857C233.253 127.979 238.242 136.74 241.351 146.238C242.846 150.806 241.787 155.682 243.621 160.267" stroke="#F9F9F9" stroke-width="3" stroke-linecap="round"/>
<path d="M243.624 160.267C243.624 164.391 244.115 167.842 245.437 171.805C246.487 174.956 248.202 178.064 248.876 181.311C249.445 184.049 250.943 186.902 250.943 189.714C250.943 195.725 252.163 201.523 252.163 207.556C252.163 212.123 248.737 216.506 244.234 217.535C242.603 217.908 240.575 217.603 238.913 217.603C237.065 217.603 235.377 217.596 233.576 217.146C231.436 216.611 228.426 216.383 226.24 216.383" stroke="#F9F9F9" stroke-width="3" stroke-linecap="round"/>
<path d="M207.634 78.2278C204.325 76.856 200.841 77.0079 197.265 77.0079C194.109 77.0079 189.352 76.3868 187.353 79.6171C185.094 83.2654 184.455 86.4625 184.455 90.7319C184.455 96.7222 187.637 101.387 189.64 106.896" stroke="#F9F9F9" stroke-width="3" stroke-linecap="round"/>
<path d="M189.642 107.201C189.642 110.283 189.603 113.083 190.556 116.045C191.433 118.768 192.244 121.506 193.132 124.229C194.441 128.244 195.383 132.821 197.588 136.496C200.186 140.826 200.97 146.114 202.62 150.83C203.296 152.761 204.045 154.42 205.128 156.167C205.86 157.348 206.74 159.343 207.94 160.114C210.017 161.45 210.861 162.402 213.582 162.402C217.445 162.402 219.683 160.723 222.427 157.98C224.583 155.823 225.965 152.195 226.696 149.271C227.047 147.87 227.425 144.399 226.171 143.324C224.442 141.842 219.994 141.697 217.818 141.697C212.531 141.697 209.019 144.783 207.635 149.83C207.107 151.758 207.33 153.864 207.33 155.845C207.33 156.906 206.983 158.62 207.398 159.657C207.81 160.687 207.997 161.57 208.55 162.537C208.875 163.106 209.672 163.252 210.143 163.69C213.137 166.47 214.626 170.135 217.022 173.381C220.349 177.889 224.015 182.025 227.764 186.19C230.009 188.685 231.293 191.819 233.863 194.12C236.37 196.363 240.538 197.779 243.928 197.779" stroke="#F9F9F9" stroke-width="3" stroke-linecap="round"/>
<path d="M248.197 182.835C248.197 186.598 248.489 190.082 246.977 193.611C246.578 194.542 244.694 194.818 243.927 195.509C243.449 195.939 242.642 195.776 242.402 196.254" stroke="#F9F9F9" stroke-width="3" stroke-linecap="round"/>
<path d="M206.414 78.8374C206.414 81.0901 206.038 83.7006 206.482 85.9197C207.044 88.7296 208.208 91.5261 209.159 94.2219C211.275 100.217 213.671 105.777 216.479 111.47C218.094 114.747 219.698 118.082 221.206 121.399C221.984 123.111 223.493 125.735 223.493 127.634" stroke="#F9F9F9" stroke-width="3" stroke-linecap="round"/>
<path d="M223.494 128.244C223.494 131.571 223.167 134.875 224.341 138.037C224.93 139.621 225.439 141.239 226.137 142.781C226.8 144.246 227.902 145.773 228.374 147.305C228.793 148.669 229.937 149.939 230.678 151.151C232.026 153.358 233.805 155.424 235.32 157.522C237.619 160.704 238.593 164.575 240.81 167.824C242.625 170.482 243.93 173.671 246.063 176.109C248.116 178.456 248.158 181.191 249.112 184.055" stroke="#F9F9F9" stroke-width="3" stroke-linecap="round"/>
<path d="M167.17 139.959C168.053 139.959 168.935 139.959 169.818 139.959C170.79 139.959 171.878 139.849 172.792 140.247C173.616 140.607 174.271 141.24 174.863 141.898C175.14 142.206 175.572 142.589 175.747 142.968C176.39 144.36 176.365 146.42 176.392 147.862C176.435 150.138 176.555 152.999 174.731 154.691C174.02 155.351 173.081 155.745 172.143 155.941C171.136 156.152 170.099 156.15 169.075 156.137C168.338 156.127 167.703 155.989 167.131 155.492C165.09 153.72 163.996 150.818 163.6 148.214C163.119 145.057 163.223 141.606 165.002 138.86C165.606 137.926 166.474 136.88 167.629 137.644C168.405 138.156 169.152 138.786 169.896 139.344" stroke="#F9F9F9" stroke-width="3" stroke-linecap="round"/>
<path d="M164.882 153.148C164.975 155.663 166.916 157.921 168.614 159.639C170.296 161.342 172.308 162.938 174.275 164.294C174.704 164.59 175.33 165.193 175.911 165.193C176.02 165.193 176.05 165.248 176.136 165.301C176.686 165.637 177.225 165.957 177.807 166.248" stroke="#F9F9F9" stroke-width="3" stroke-linecap="round"/>
<path d="M168.241 89.8394C168.241 91.9672 168.241 94.095 168.241 96.2228C168.241 98.8407 168.422 101.528 168.175 104.138C168.025 105.73 167.717 107.303 167.582 108.899C167.421 110.804 167.459 112.73 167.351 114.64C167.064 119.734 164.684 124.41 163.579 129.334C163.092 131.505 163.2 133.757 163.2 135.965C163.2 137.827 163.758 139.61 164.057 141.434C164.315 143.014 164.09 144.81 164.09 146.401C164.09 149.836 163.941 153.267 163.941 156.705" stroke="#F9F9F9" stroke-width="3" stroke-linecap="round"/>
<path d="M224.033 291.377C225.127 291.377 226.316 291.262 227.412 291.377C228.368 291.478 228.793 294.136 228.98 294.743C230.443 299.468 230.843 304.18 227.76 308.272C226.635 309.765 225.512 311.415 223.604 311.892C222.367 312.201 220.444 312.788 219.192 312.241C218.448 311.915 218.115 311.293 217.999 310.511C217.736 308.738 217.353 306.979 216.551 305.376" stroke="#F9F9F9" stroke-width="3" stroke-linecap="round"/>
<path d="M225.002 291.619C221.744 291.697 221.77 296.161 221.462 298.672C220.931 303.007 220.416 307.514 220.416 311.892" stroke="#F9F9F9" stroke-width="3" stroke-linecap="round"/>
<path d="M231.276 301.274C231.276 296.098 231.608 290.815 230.659 285.707C229.418 279.032 228.559 272.321 227.119 265.688C226.317 261.994 226.227 258.112 224.518 254.693" stroke="#F9F9F9" stroke-width="3" stroke-linecap="round"/>
<path d="M231.757 302.48C226.055 311.478 221.47 321.558 217.571 331.522C215.836 335.955 213.526 340.725 212.985 345.494C212.567 349.181 212.056 352.821 211.296 356.462C210.27 361.377 208.618 365.899 206.898 370.594C205.96 373.153 204.633 375.99 204.484 378.746C204.466 379.079 203.903 380.726 204.484 380.435" stroke="#F9F9F9" stroke-width="3" stroke-linecap="round"/>
<path d="M234.411 404.811C236.009 404.838 238.489 405.027 239.721 406.259C240.309 406.848 240.004 408.774 239.949 409.518C239.839 411.001 238.771 412.576 237.536 413.379C236.39 414.124 233.513 414.834 232.239 413.929C229.486 411.973 229.123 406.994 231.877 404.838C232.856 404.072 234.029 404.316 235.135 404.624C235.466 404.715 236.968 404.904 236.691 404.825C236.008 404.63 235.14 404.796 234.425 404.677C233.195 404.472 231.972 404.361 230.738 404.195C227.95 403.819 224.998 403.463 222.773 401.567C219.544 398.813 216.957 395.438 214.5 392.02C213.286 390.331 211.983 388.56 211.162 386.643C210.445 384.972 210.069 383.193 209.07 381.642C208.12 380.166 206.932 377.442 205.316 376.56C204.942 376.356 204.002 375.007 204.002 375.85" stroke="#F9F9F9" stroke-width="3" stroke-linecap="round"/>
<path d="M236.827 414.466C235.057 414.466 233.287 414.466 231.517 414.466C230.24 414.466 228.611 414.715 227.415 414.224C225.437 413.413 223.174 412.977 221.14 412.186C218.404 411.122 215.392 410.78 212.692 409.88" stroke="#F9F9F9" stroke-width="3" stroke-linecap="round"/>
<path d="M181.843 34.2104C181.843 31.9995 181.816 29.7868 181.843 27.5761C181.853 26.7785 182.052 25.9396 182.242 25.1672C182.431 24.4002 182.511 23.6167 182.712 22.8548C183.044 21.6036 183.362 20.4381 183.994 19.2994C184.646 18.1265 185.108 16.8276 185.836 15.6989C186.646 14.4445 187.168 13.1574 188.219 12.0661C189.126 11.1257 190.022 10.0978 190.886 9.11614C192.339 7.46456 193.288 5.27534 195.118 4.00841C195.574 3.69238 196.332 3.52011 196.87 3.48024C198.424 3.3651 200.002 3.27986 201.552 3.11311C204.368 2.81031 207.041 2.96974 209.842 3.5511C211.692 3.93516 213.541 4.64375 215.349 5.2C218.054 6.03221 221.283 7.25584 223.104 9.56701C224.664 11.5476 226.664 13.8048 226.82 16.4653C226.91 17.9803 226.609 18.9147 225.294 19.8404C221.892 22.2342 217.963 22.0652 213.958 22.0368C209.375 22.0043 204.754 21.0788 200.419 19.6279C198.574 19.0104 196.756 18.2587 195.034 17.3478C193.55 16.5627 191.714 15.5628 190.551 14.3205C189.173 12.848 187.844 10.5426 189.005 8.58153C190.731 5.66734 193.945 5.09793 197.057 4.64607C200.118 4.20147 203.317 3.8345 206.415 3.8345C207.203 3.8345 207.995 3.77464 208.741 4.07282C209.647 4.43557 210.534 4.90501 211.407 5.3417C214.798 7.03697 217.821 9.35759 221.088 11.2546C222.116 11.8512 223.309 12.5112 224.096 13.4187C224.829 14.2642 225.377 15.1024 226.015 16.0145C226.816 17.1585 226.748 18.5111 226.711 19.834C226.696 20.3829 226.139 22.1528 225.436 22.1528" stroke="#F9F9F9" stroke-width="3" stroke-linecap="round"/>
<path d="M225.899 22.0371C225.899 23.0843 225.732 24.2368 226.157 25.1932C226.777 26.5877 228.047 27.6085 228.476 29.1093C228.623 29.6246 228.798 29.9369 228.798 30.5006C228.798 31.4527 228.674 32.1961 228.334 33.077C228.103 33.6759 228.002 34.3319 227.78 34.932C227.5 35.688 227.303 36.4069 227.2 37.225C227.015 38.7061 227.316 39.878 227.961 41.1669C228.425 42.0951 228.566 42.6751 228.566 43.7433C228.566 45.1934 228.361 46.6313 227.845 48.0073C227.326 49.3915 225.881 52.2132 223.928 51.4146C223.008 51.0379 222.808 49.9214 222.775 49.0379C222.712 47.3197 222.75 45.6495 223.297 44.0074C223.727 42.7184 224.709 41.5814 225.545 40.5357C225.905 40.0858 226.318 40.0378 226.885 40.1364C227.531 40.2487 229.203 41.1653 229.371 41.9205C229.573 42.8313 229.083 44.1154 228.617 44.877C227.876 46.09 226.941 46.9717 225.899 47.8978C225.042 48.66 223.985 49.1941 223.052 49.8688C221.761 50.8029 220.544 51.8125 219.233 52.7157C217.522 53.8942 215.909 55.1788 214.112 56.2389C212.395 57.2527 210.806 58.7256 208.998 59.5561C208.78 59.6565 205.99 61.1722 205.958 61.1083" stroke="#F9F9F9" stroke-width="3" stroke-linecap="round"/>
<path d="M225.445 52.2393C225.445 56.5272 225.499 60.7716 224.282 64.9379C222.996 69.3396 219.961 73.5259 216.311 76.2997C214.965 77.323 211.115 79.8438 209.405 78.3048C208.594 77.5753 208.446 76.1789 208.179 75.1735C207.732 73.4843 207.601 71.9861 207.622 70.2351C207.674 65.9829 210.775 62.5441 213.588 59.6406C216.498 56.6367 219.518 53.6206 223.39 51.8433C225.067 51.0737 227.771 50.5755 228.292 53.18C228.644 54.9415 228.256 56.6893 227.883 58.3658C227.306 60.9622 226.55 63.5328 226.002 66.1508C225.134 70.2972 225.476 73.756 226.905 77.7726C228.57 82.4496 230.641 86.8337 235.161 89.3448C237.395 90.5862 239.816 91.2261 242.376 91.2261C245.049 91.2261 246.609 89.8252 248.404 87.9834C250.152 86.1891 251.68 84.2768 253.243 82.3148C253.743 81.6868 254.58 80.5146 254.852 79.7652C255.117 79.0381 256.156 78.0192 256.969 78.6513C258.034 79.4802 257.647 80.3507 257.761 81.5475C257.9 83.0109 258.194 84.403 258.194 85.8794C258.194 87.0171 258.388 88.275 257.748 89.2706C257.188 90.1422 256.674 91.1452 255.966 91.8945C254.141 93.8267 252.392 96.1731 253.466 99.073C254.45 101.729 257.748 102.596 257.748 105.484C257.748 107.094 256.412 108.885 255.347 109.989C253.293 112.119 251.09 113.694 248.503 115.163C245.633 116.792 242.137 116.458 239.27 118.071C237.611 119.005 237.928 121.427 237.252 122.948C236.904 123.731 232.129 120.634 231.695 120.2C230.26 118.765 228.687 117.619 227.537 115.918C225.728 113.244 224.706 109.642 223.712 106.598C222.657 103.364 221.72 100.043 220.098 97.0308C217.887 92.9235 215.585 88.5448 212.647 84.9016C211.619 83.6268 210.764 82.416 209.962 80.9905C209.132 79.5149 209.405 77.717 209.405 76.077" stroke="#F9F9F9" stroke-width="3" stroke-linecap="round"/>
<path d="M66.4533 389.604C68.7025 390.707 71.0492 390.733 73.5044 391.035C75.0459 391.225 76.5824 391.353 78.1344 391.353C78.8953 391.353 79.0662 391.142 79.4951 390.523C80.1595 389.563 79.1587 389.419 78.3818 388.879C77.3938 388.193 76.4629 387.218 75.2009 387.218C74.2877 387.218 73.9831 387.744 73.4425 388.42C72.5422 389.545 71.5608 390.944 70.2881 391.671C68.69 392.585 66.7663 393.139 64.9689 393.474C64.5858 393.545 63.7508 393.74 63.3607 393.492C62.6986 393.07 62.28 390.598 63.3961 390.558C64.8994 390.504 67.1374 390.149 68.5209 390.841C70.0433 391.602 71.7552 392.09 73.3276 392.749C75.2155 393.541 77.2503 393.776 78.6999 395.329C80.8131 397.594 82.3364 400.998 83.0029 403.997C83.1693 404.746 83.1532 405.471 83.1532 406.268C83.1532 408.105 83.2259 409.956 83.1443 411.791C83.0445 414.036 82.2369 417.081 80.6084 418.709C78.6912 420.627 75.9451 422.298 73.3011 422.924C70.6179 423.559 68.1908 423.336 65.6227 422.208C63.4089 421.236 60.3595 419.74 59.2079 417.437C57.2105 413.442 64.3333 410.429 67.0188 409.75C70.6539 408.831 75.2703 408.941 78.6999 410.563C80.0503 411.201 81.2446 412.067 81.2446 413.699C81.2446 414.572 80.6039 414.714 80.4405 415.449C80.264 416.243 80.0001 417.033 79.822 417.835C79.6952 418.405 78.7595 419.11 78.3111 419.469C77.1333 420.411 75.598 420.701 74.1671 421.015C72.8306 421.309 71.4766 421.413 70.1114 421.413C69.0064 421.413 67.624 421.634 66.577 421.219C65.2326 420.685 63.2575 420.169 62.1591 419.186C60.5802 417.774 59.2962 416.148 59.2962 413.938C59.2962 412.875 59.4467 411.893 59.6143 410.845C59.772 409.86 60.4817 409.077 60.922 408.212C61.3571 407.358 61.845 406.655 62.0354 405.703C62.1932 404.914 62.2717 404.136 62.3269 403.335C62.4821 401.086 62.9543 398.86 62.9543 396.602C62.9543 395.12 62.9543 393.639 62.9543 392.157C62.9543 390.316 64.7683 388.349 66.2943 387.501C66.7606 387.242 66.7173 386.766 67.01 386.343C67.5664 385.54 67.9921 384.473 68.3265 383.56C68.955 381.844 69.2744 380.006 69.9523 378.312" stroke="#F9F9F9" stroke-width="3" stroke-linecap="round"/>
<path d="M69.9502 378.312C69.9502 376.738 69.7462 375.026 69.9855 373.47C70.0845 372.827 70.4273 372.109 70.4273 371.473C70.4273 370.147 71.9359 369.015 72.3359 367.815" stroke="#F9F9F9" stroke-width="3" stroke-linecap="round"/>
<path d="M87.127 370.837C87.127 373.564 86.4572 375.985 85.943 378.63C85.5103 380.855 85.224 383.122 85.0682 385.381C85 386.369 84.9828 387.565 84.5822 388.491C84.1533 389.483 83.787 390.903 83.787 391.99C83.787 394.564 83.787 397.138 83.787 399.713C83.787 401.485 83.3099 403.189 83.3099 404.952C83.3099 406.361 82.9046 407.801 82.8327 409.167C82.7828 410.116 82.8327 411.079 82.8327 412.03" stroke="#F9F9F9" stroke-width="3" stroke-linecap="round"/>
<path d="M70.5698 370.543C70.5698 365.009 70.5698 359.475 70.5698 353.941C70.5698 352.186 69.9007 348.697 70.8749 347.166C74.5944 341.321 74.8104 334.864 75.7883 328.215C76.6368 322.445 76.6123 315.949 76.6123 310.117C76.6123 305.156 77.1616 300.282 77.1616 295.286C77.1616 294.021 75.6237 290.22 77.1616 289.365C79.8542 287.869 83.0847 288.579 85.9203 287.87C88.7751 287.156 91.9312 286.948 94.8621 286.375C98.8195 285.6 102.978 285.218 106.825 283.994C114.968 281.403 115.004 276.533 107.069 272.702C100.756 269.655 84.6753 265.889 79.1148 273.038C76.126 276.881 74.667 285.006 74.415 289.793C74.2669 292.606 77.5779 291.99 79.6946 291.99C82.2921 291.99 85.0199 292.226 87.5988 291.868C92.8897 291.133 98.5398 288.238 103.529 286.375C106.623 285.219 109.608 283.978 112.593 282.651C113.176 282.392 116.713 280.614 116.713 281.003C116.713 282.649 115.57 284.776 115.034 286.283C113.373 290.956 112.32 295.801 110.67 300.474C108.079 307.817 106.511 315.237 104.201 322.63C102.896 326.805 101.7 331.149 100.508 335.386C99.5095 338.936 98.5852 342.546 98.5852 346.251C98.5852 350.517 98.6199 357.56 96.388 361.327C94.3519 364.762 92.5686 368.599 90.7726 372.191C89.1332 375.47 89.4555 378.272 86.5001 373.839" stroke="#F9F9F9" stroke-width="3" stroke-linecap="round"/>
<path d="M112.317 281.552C112.317 266.109 110.464 250.011 116.437 235.409C117.806 232.064 118.36 228.264 118.36 224.667C118.36 219.555 118.839 214.169 118.329 209.072C117.857 204.351 115.003 199.969 113.538 195.736C112.748 193.454 112.464 190.619 111.219 188.595C110.14 186.842 110.047 184.762 109.021 183.224" stroke="#F9F9F9" stroke-width="3" stroke-linecap="round"/>
<path d="M109.022 184.322C105.419 185.547 102.407 187.627 98.8904 188.961C92.6223 191.338 86.1127 193.229 79.481 194.21C73.4471 195.102 67.077 194.967 60.9871 194.728C58.4061 194.627 56.1142 193.971 53.6628 193.233C51.4586 192.569 49.136 192.705 46.9488 192.012C40.868 190.087 35.413 187.329 35.413 180.477C35.413 178.533 40.5358 179.378 42.0049 179.378C50.74 179.378 59.4234 179.301 68.1283 180.202C78.5112 181.276 91.0476 179.283 100.782 183.895C101.749 184.352 106.876 187.099 104.628 188.289C102.743 189.287 100.889 189.684 98.7683 190.09C91.3584 191.509 83.7076 193.111 76.1545 193.111C65.0593 193.111 49.5898 190.111 42.3101 180.751C41.0079 179.077 39.1392 179.378 37.061 179.378C35.7643 179.378 29.6166 182.125 31.5678 182.125C41.1147 182.125 34.1587 196.813 32.9106 200.557C29.1041 211.977 23.3279 224.024 23.3279 236.385C23.3279 240.036 22.7786 243.757 22.7786 247.494C22.7786 249.601 21.7454 255.157 23.3279 256.832C25.5228 259.157 30.8071 260.039 33.7651 260.8C38.3325 261.974 43.3791 261.222 48.0475 262.082C57.7475 263.868 65.4687 265.836 66.6024 276.669C67.6462 286.643 60.5196 296.933 49.9396 296.933C42.9967 296.933 37.0603 291.988 32.3918 287.32C27.675 282.603 25.3634 277.931 24.1519 271.39C23.316 266.876 22.568 260.409 26.6239 257.656C32.1838 253.884 39.4989 254.643 45.545 256.832C55.3133 260.369 59.5832 266.661 59.5832 276.578C59.5832 280.043 58.4846 283.321 58.4846 286.801C58.4846 289.812 58.4846 292.823 58.4846 295.834" stroke="#F9F9F9" stroke-width="3" stroke-linecap="round"/>
<path d="M58.4836 296.384C58.4836 305.824 59.8708 316.557 56.9577 325.62C54.3506 333.731 51.7187 341.961 50.7931 350.523C50.0548 357.351 47.3205 363.875 46.368 370.542C46.2617 371.286 45.6276 376.923 44.9947 377.104C44.015 377.384 42.2592 374.604 42.0039 373.838" stroke="#F9F9F9" stroke-width="3" stroke-linecap="round"/>
<path d="M42.0042 373.839C42.0042 379.881 42.0042 385.924 42.0042 391.966C42.0042 399.221 43.6521 406.457 43.6521 413.665C43.6521 414.937 44.7083 416.364 45.178 417.479C46.2257 419.967 46.7192 424.171 46.9176 426.848C47.0279 428.338 49.2219 439.405 47.7721 439.727C40.5082 441.341 31.9394 440.662 25.5245 436.889C24.245 436.136 24.4258 434.131 24.4258 432.891C24.4258 430.413 29.7985 428.387 31.6891 427.672C36.4552 425.872 41.3224 425.154 45.8494 427.55C48.2139 428.802 49.6871 432.513 49.1149 435.088C48.3793 438.398 37.4729 439.208 34.8935 439.208C31.7878 439.208 28.9606 439.07 26.3179 437.56C23.3748 435.878 23.6203 432.956 22.8084 430.114C22.0567 427.483 22.2285 423.947 22.2285 421.202C22.2285 417.63 22.7421 415.796 24.5479 412.841C26.7086 409.305 33.4978 410.026 36.5109 407.347C37.397 406.56 39.2576 406.306 39.2576 404.875C39.2576 403.344 37.7703 402.953 36.5109 402.953C35.0561 402.953 33.5692 402.867 32.1164 402.953C31.199 403.007 31.1578 405.699 32.391 405.699C33.3885 405.699 40.0897 405.179 40.3257 406.005C41.0465 408.527 34.8729 408.995 32.9403 408.995C31.0177 408.995 29.0951 408.995 27.1725 408.995C25.6616 408.995 25.5245 406.256 25.5245 404.906C25.5245 402.092 31.0177 400.169 31.0177 404.051C31.0177 405.712 31.2873 407.347 29.0951 407.347C27.499 407.347 26.4239 408.366 24.9752 408.446C21.7561 408.625 24.3458 402.304 22.3506 407.042C21.0246 410.191 20.0312 412.407 20.0312 416.137C20.0312 419.726 20.7661 417.82 21.4351 414.977C22.1406 411.978 22.9894 408.742 23.2967 405.669C23.502 403.616 23.141 400.488 23.9986 398.558C24.4652 397.508 24.9752 395.548 24.9752 394.408C24.9752 389.647 24.9752 384.886 24.9752 380.125C24.9752 377.423 25.5307 374.004 24.9446 371.367C24.1705 367.883 23.3272 364.313 23.3272 360.655C23.3272 356.257 24.8233 352.149 24.9752 347.898C25.323 338.158 24.9752 328.346 24.9752 318.601C24.9752 307.906 20.2076 296.121 23.3272 285.398C24.2466 282.237 26.019 275.528 29.3697 274.411" stroke="#F9F9F9" stroke-width="3" stroke-linecap="round"/>
<path d="M59.582 316.709C59.582 302.732 59.8237 287.12 65.8687 274.167C70.0886 265.124 68.7387 254.021 71.6671 244.503C72.273 242.534 72.7658 240.514 72.7658 238.461C72.7658 236.051 74.8444 243.71 74.9631 244.168C77.465 253.818 77.1604 263.504 77.1604 273.373C77.1604 276.641 77.3786 280.01 77.0383 283.261C76.5701 287.735 74.9004 292.119 73.9865 296.506C72.7884 302.257 73.3151 308.32 73.3151 314.145C73.3151 327.242 73.0194 340.006 74.9631 352.964" stroke="#F9F9F9" stroke-width="3" stroke-linecap="round"/>
<path d="M113.416 193.111C118.744 186.769 122.904 179.646 127.821 173.091C130.46 169.573 133.284 166.839 135.145 162.898C136.373 160.298 136.488 157.194 136.488 154.384C136.488 149.352 124.408 148.814 120.588 149.196C116.887 149.566 117.261 153.179 117.261 156.001C117.261 158.789 125.079 160.152 127.149 160.152C128.833 160.152 132.629 160.923 133.619 159.053C134.252 157.857 134.292 152.563 132.765 152.034C128.331 150.499 116.882 146.708 116.193 153.59C115.859 156.929 115.099 160.087 113.965 163.203C112.934 166.039 110.747 168.04 109.296 170.619C106.492 175.605 104.208 180.086 102.43 185.421" stroke="#F9F9F9" stroke-width="3" stroke-linecap="round"/>
<path d="M117.81 152.461C117.81 146.076 118.074 139.252 113.538 134.212C111.792 132.272 110.926 129.937 109.57 127.864C108.301 125.922 107.373 124.576 107.373 122.249" stroke="#F9F9F9" stroke-width="3" stroke-linecap="round"/>
<path d="M134.838 155.758C134.838 149.868 136.293 142.447 133.465 137.355C132.04 134.791 130.444 132.637 130.444 129.665C130.444 126.627 135.3 127.974 133.984 124.965C132.628 121.867 132.462 118.606 131.664 115.413C130.079 109.071 127.112 102.828 125.072 96.5529C124.295 94.161 123.867 91.5139 122.631 89.2896C122.171 88.4612 120.937 88.4975 120.434 87.6417C119.882 86.7039 118.057 83.6457 117.26 83.2471" stroke="#F9F9F9" stroke-width="3" stroke-linecap="round"/>
<path d="M35.9624 202.45C33.6162 199.353 29.5956 196.613 27.8446 193.111C26.1661 189.754 23.7269 187.072 21.3748 184.047C19.508 181.647 17.629 179.587 15.9426 176.937C14.431 174.561 13.8905 172.014 12.7688 169.49C12.3953 168.65 9.49942 164.067 10.6936 163.997C13.7371 163.818 17.474 164.707 20.3067 163.448C22.3439 162.542 28.6086 159.788 23.8773 157.283C20.774 155.64 18.319 155.208 14.8135 155.208C12.9069 155.208 8.63727 157.229 7.39761 158.779C5.52121 161.124 8.64471 163.836 10.6936 164.974C13.4597 166.511 18.0526 165.645 21.1307 165.645C22.3322 165.645 22.9193 164.627 23.7552 163.875C24.2227 163.454 24.8247 163.132 25.2201 162.624C25.5508 162.199 25.5253 160.498 25.5253 161.037C25.5253 164.135 28.9937 169.045 31.2932 170.833C33.4799 172.534 33.4885 176.129 35.4131 178.28C37.7012 180.837 38.4965 184.637 40.6011 187.343C41.9518 189.08 42.968 191.606 43.6529 193.661" stroke="#F9F9F9" stroke-width="3" stroke-linecap="round"/>
<path d="M25.5234 162.349C25.5234 156.78 24.6083 151.252 27.2934 146.419C28.3896 144.445 30.0849 143.033 31.1387 140.925C31.8161 139.57 31.9705 135.505 33.2139 134.883" stroke="#F9F9F9" stroke-width="3" stroke-linecap="round"/>
<path d="M6.8469 161.25C6.8469 157.276 6.6941 153.26 6.8469 149.287C6.95011 146.604 9.59352 144.235 9.59352 141.475C9.59352 138.313 7.60021 138.819 5.19893 137.751C4.21281 137.313 3.14131 138.013 2.33025 137.202C1.59753 136.469 1.90299 135.068 1.90299 134.059C1.90299 130.817 5.74826 128.168 5.74826 124.72C5.74826 121.947 6.95773 118.67 8.18969 116.206C9.69544 113.194 10.6632 109.423 12.035 106.287C13.247 103.517 14.6766 100.407 15.6361 97.5288" stroke="#F9F9F9" stroke-width="3" stroke-linecap="round"/>
<path d="M16.1877 97.529C16.1877 91.6285 16.0718 88.3072 21.6504 85.1693C24.505 83.5636 30.1051 81.7794 31.5687 78.8521" stroke="#F9F9F9" stroke-width="3" stroke-linecap="round"/>
<path d="M32.959 136.698C33.025 133.993 34.681 132.161 35.1617 129.539C35.7387 126.392 37.7306 122.949 39.0377 120.008C39.6729 118.579 40.0986 117.201 40.8804 115.857C42.8402 112.486 44.6123 109.032 47.4463 106.198C50.7099 102.935 53.7998 103.245 57.9305 102.174C61.9744 101.126 67.8151 101.066 71.0623 104.313C74.0439 107.295 74.4301 111.927 74.1123 115.899C73.9614 117.785 71.8633 120.082 70.7023 121.533C69.1145 123.518 67.2943 125.821 64.9836 126.976C60.8828 129.027 57.7859 129.538 53.165 129.454C49.217 129.382 43.4631 126.738 42.4054 122.507C41.5433 119.059 39.7854 113 42.4901 110.011C45.0142 107.221 49.6773 106.039 53.2497 105.521C58.8908 104.702 63.1553 105.17 68.4783 107.3C71.6089 108.552 74.2606 109.884 75.8491 113.061C77.1409 115.644 78.2393 118.299 79.3015 120.982C79.8134 122.276 80.2663 123.84 81.4618 124.668C85.5297 127.484 88.7896 128.311 93.7464 128.311C98.1918 128.311 102.765 126.55 105.184 122.592C108.135 117.762 105.149 110.763 103.68 106.029C102.817 103.25 100.737 100.438 98.1519 99.1453C93.8991 97.0189 86.7238 97.1822 82.1608 98.0227C78.8293 98.6364 74.6805 100.397 73.4557 103.826C71.3766 109.647 74.021 115.386 77.9459 119.542C83.304 125.215 89.5665 130.642 98.1307 128.501C100.095 128.01 101.886 126.448 103.68 125.451C104.881 124.784 106.094 124.879 107.492 124.879C108.6 124.879 108.827 124.807 108.827 126.023C108.827 127.536 108.937 129.083 108.424 130.534C107.431 133.349 104.937 135.392 104.337 138.392C103.543 142.361 105.697 143.654 107.302 146.61C108.783 149.339 110.661 151.804 112.067 154.616C113.768 158.018 113.537 162.206 113.381 165.884C113.264 168.629 112.328 171.329 112.258 174.06C112.222 175.45 112.305 176.586 111.877 177.872" stroke="#F9F9F9" stroke-width="3" stroke-linecap="round"/>
<path d="M36.3898 126.785C36.3898 130.189 35.6273 133.377 35.6273 136.782C35.6273 138.722 36.8083 140.881 37.1311 142.819C37.4159 144.527 37.5335 146.15 37.5335 147.923C37.5335 150.757 37.0752 152.36 36.0933 154.913C34.1674 159.92 33.3398 163.916 33.3398 169.294C33.3398 174.113 34.5108 177.954 36.0086 182.447" stroke="#F9F9F9" stroke-width="3" stroke-linecap="round"/>
<path d="M30.2891 81.0363C32.9035 80.9725 34.9632 79.1118 37.1515 77.7745C39.3186 76.4502 41.1832 75.8431 43.7174 75.4023C48.5543 74.5611 53.8558 75.676 58.5224 76.8426C60.1138 77.2405 61.5058 77.8809 62.9914 78.4523C64.5632 79.0568 65.3516 80.5454 67.2698 80.6551C72.3672 80.9463 77.26 81.9547 81.7995 79.0877C83.7644 77.8467 85.5999 76.3172 87.3911 74.8517C88.2249 74.1695 89.437 74.1659 90.3564 73.5808C94.0809 71.2107 99.261 71.4269 103.488 71.5052C107.301 71.5758 110.861 73.4214 113.21 76.2919C114.246 77.5582 115.04 79.2195 115.603 80.7398C116.335 82.7145 117.523 83.9106 118.738 85.6112" stroke="#F9F9F9" stroke-width="3" stroke-linecap="round"/>
<path d="M66.4732 3.54181C64.3865 3.54181 61.4025 2.96502 59.4764 4.19071C58.3124 4.93143 57.4927 5.90544 56.514 6.78631C53.4904 9.50753 52.6248 13.1919 55.7523 16.4352C58.7382 19.5317 62.9164 20.887 67.2632 21.048C72.8258 21.254 78.7879 21.5617 84.191 20.1029C86.2574 19.5449 91.0299 19.1453 89.9324 16.0966C88.1119 11.0398 82.4884 8.0536 78.1816 5.48851C76.0549 4.22185 73.7769 2.98101 71.2976 2.58257C69.3341 2.267 67.3718 2.81637 65.4575 3.16093C62.3195 3.72579 59.2213 3.90883 56.119 4.6139C52.1398 5.51827 52.6473 9.6508 52.7617 12.6828C52.8621 15.345 53.0156 17.9955 53.0156 20.6812C53.0156 25.2647 52.1392 29.7195 51.6896 34.2658C51.3444 37.7563 51.2552 41.3868 52.141 44.8034C52.8088 47.3792 54.702 49.149 56.4435 51.0243C58.1064 52.8152 61.7356 53.5682 63.9905 54.2124C67.2434 55.1418 71.2073 55.6227 74.5986 55.8347C77.8186 56.0359 81.5744 56.2678 84.5013 54.7767C87.2164 53.3936 88.7064 50.8968 89.7066 48.1184C90.8604 44.9134 90.5586 41.2728 90.7928 37.9053C91.1112 33.3283 90.9405 28.4914 90.7082 23.9116C90.5901 21.5823 90.9749 19.6389 88.3665 19.5386C86.6907 19.4741 84.8895 19.3685 83.2318 19.5527C79.9933 19.9125 76.1221 20.8323 76.1221 24.7157C76.1221 26.2738 76.8529 27.1854 78.3509 27.7204C79.4112 28.0991 81.7073 29.0034 82.8368 28.2846C83.7736 27.6885 84.4863 26.3766 85.2067 25.5762C85.7798 24.9394 83.356 22.5562 82.8509 22.3317C81.1462 21.574 77.3901 22.0463 76.4324 23.8552C74.5456 27.4191 78.738 32.0867 79.1691 35.5354C79.2026 35.8034 79.4795 36.1343 79.6205 36.3536C80.2814 37.3817 79.5751 38.903 80.0578 39.9648C80.3529 40.6141 80.8634 41.9387 80.9465 42.6451C81.1009 43.9575 79.1958 42.031 78.5343 41.5166C77.5246 40.7312 75.2122 40.9792 74.0907 41.573C72.976 42.1631 72.0716 42.915 71.1848 43.8018C70.2447 44.7419 72.9199 45.0094 73.6393 45.2407C74.6683 45.5714 76.2491 45.6921 77.2647 45.6921C78.2087 45.6921 78.8593 45.6735 79.6769 45.2407C81.2543 44.4056 80.3585 41.9832 78.6612 41.8833C77.0072 41.786 74.8246 41.1088 73.202 42.0103C72.5241 42.3869 71.5046 42.9732 71.1001 43.6607C70.8724 44.0478 70.4641 44.7457 70.1409 44.9303C68.7182 45.7433 70.2405 43.2513 70.282 42.899C70.3934 41.9519 71.2976 41.0193 71.2976 39.9789C71.2976 35.8283 71.5516 31.6127 71.5516 27.537C71.5516 24.1071 67.0172 24.1091 64.329 24.1091C62.8222 24.1091 61.2986 25.3489 60.5767 26.6483C59.9568 27.7641 61.4363 29.1492 62.2836 29.8081C64.0906 31.2137 67.3821 31.2031 69.1393 29.8364C69.8273 29.3013 70.5359 28.3168 70.5359 27.41C70.5359 26.6992 70.7172 25.1248 69.7741 25.1248" stroke="#F9F9F9" stroke-width="3" stroke-linecap="round"/>
<path d="M69.0149 8.05135C65.082 17.7679 59.4567 26.733 57.9766 37.094C57.7516 38.6687 57.7949 40.6657 57.2595 42.165C56.6002 44.0109 57.1654 46.4082 56.4656 48.1579C54.4923 53.091 55.646 60.0451 55.646 65.3171C55.646 71.5927 54.724 77.8121 54.724 84.0899C54.724 91.4056 51.7538 98.2634 49.6531 105.091C47.8948 110.805 41.0886 112.254 36.5147 109.47C34.3895 108.177 31.7326 107.655 30.1889 105.577C28.3642 103.121 27.9863 100.689 27.9863 97.7404C27.9863 92.8914 27.9863 88.0425 27.9863 83.1935C27.9863 80.1279 27.9928 78.513 30.0352 76.0993C31.6574 74.1821 33.4264 72.3003 34.0817 69.8246C35.4971 64.4775 34.0365 58.7858 35.2598 53.4337C35.7009 51.5038 35.9036 49.4444 36.2586 47.492C36.6047 45.5887 37.9666 45.7584 39.1526 44.5724C41.3734 42.3516 40.4332 36.5738 40.4332 33.6366C40.4332 29.1445 41.7238 25.1662 43.865 21.1897C45.6302 17.9115 48.1548 15.2545 49.2177 11.5344C50.2859 7.79585 53.0284 7.1199 56.3119 6.18176C57.0956 5.95785 58.3877 4.78701 59.1291 4.36339C61.5069 3.00462 64.1618 2.98041 66.8123 2.98041C71.8393 2.98041 76.9044 2.77105 81.8203 3.79995C84.6818 4.39887 86.6506 6.46631 88.9401 8.05135C90.754 9.30713 92.0621 11.7382 94.1391 12.6613C95.6415 13.3291 96.7315 15.9606 97.5965 17.2712C99.1437 19.6154 100.701 22.0114 101.745 24.6215C103.794 29.7416 105.949 34.4549 107.38 39.86C108.347 43.5133 107.738 47.9316 107.738 51.7434C107.738 56.5781 108.127 60.7989 111.426 64.2927C114.103 67.1273 113.528 73.0822 113.731 76.7396C113.947 80.623 115.575 84.1505 115.575 88.0339C115.575 92.9652 108.216 92.7436 104.947 91.7219C102.243 90.877 101.277 92.5202 100.004 94.7184C99.5228 95.5494 97.2905 98.1315 96.4184 98.3807C91.7995 99.7004 85.0155 97.9892 82.8447 93.1049C81.183 89.366 83.7667 85.0678 83.7667 81.2471C83.7667 79.7546 83.0423 77.9574 81.7178 77.2006C80.7159 76.628 80.5397 73.5787 80.5397 72.4882C80.5397 69.4932 80.1706 66.5593 81.4873 63.8061C82.629 61.4189 83.4527 58.7229 84.5862 56.4558C85.3885 54.8512 86.5974 54.0631 87.4547 52.5629C87.8284 51.9088 88.7806 50.2609 89.2986 50.0019" stroke="#F9F9F9" stroke-width="3" stroke-linecap="round"/>
</svg>
